<svg width="512" height="512" viewBox="0 0 512 512" xmlns="http://www.w3.org/2000/svg">
  <defs>
    <linearGradient id="bg" x1="0" y1="0" x2="1" y2="1">
      <stop offset="0%" stop-color="#0f2f36"/>
      <stop offset="100%" stop-color="#1a5966"/>
    </linearGradient>
    <linearGradient id="wave1" x1="0" y1="0" x2="1" y2="0">
      <stop offset="0%" stop-color="#3aabb9"/>
      <stop offset="100%" stop-color="#6ac9d6"/>
    </linearGradient>
    <linearGradient id="wave2" x1="0" y1="0" x2="1" y2="0">
      <stop offset="0%" stop-color="#1e8a9a"/>
      <stop offset="100%" stop-color="#3aabb9"/>
    </linearGradient>
    <clipPath id="clip">
      <rect width="512" height="512" rx="96"/>
    </clipPath>
  </defs>
  <rect width="512" height="512" rx="96" fill="url(#bg)"/>
  <g clip-path="url(#clip)">
    <path d="M0 280 Q64 240 128 270 Q192 300 256 260 Q320 220 384 260 Q448 300 512 270 L512 340 Q448 370 384 330 Q320 290 256 330 Q192 370 128 340 Q64 310 0 340 Z" fill="url(#wave1)" opacity="0.9"/>
    <path d="M0 320 Q64 290 128 320 Q192 350 256 310 Q320 270 384 310 Q448 350 512 320 L512 512 Q512 512 512 512 L0 512 Z" fill="url(#wave2)" opacity="0.7"/>
    <path d="M0 370 Q64 340 128 370 Q192 400 256 360 Q320 320 384 360 Q448 400 512 370 L512 512 L0 512 Z" fill="#0f2f36" opacity="0.3"/>
  </g>
</svg>
